<svg xmlns="http://www.w3.org/2000/svg" viewBox="0 0 11.262 13.765">
    <defs>
        <style>
            .cls-1{fill:#202020}
        </style>
    </defs>
    <path id="ic_content_paste_24px" d="M13.011 1.251H10.4a1.87 1.87 0 0 0-3.529 0h-2.62A1.255 1.255 0 0 0 3 2.5v10.013a1.255 1.255 0 0 0 1.251 1.251h8.759a1.255 1.255 0 0 0 1.251-1.251V2.5a1.255 1.255 0 0 0-1.25-1.249zm-4.38 0a.626.626 0 1 1-.626.626.628.628 0 0 1 .626-.626zm4.38 11.262h-8.76V2.5H5.5v1.88h6.257V2.5h1.251z" class="cls-1" transform="translate(-3)"/>
</svg>
