<svg xmlns="http://www.w3.org/2000/svg" viewBox="0 0 302.5 181.239">
    <defs>
        <style>
            .cls-1{opacity:.05}.cls-2{fill:#2d2a27}.cls-3{fill:#eed5b9}.cls-4{fill:#37404e}.cls-5{fill:#7f634a}.cls-6{fill:none}.cls-7{fill:#756758}.cls-8{fill:#2f435f}.cls-9{fill:#edd4b9}.cls-10{fill:#41352b}.cls-11{fill:#dde9ed}.cls-12{fill:#b0cdd1}.cls-13{fill:#686867}.cls-14{fill:#129490}.cls-15{fill:#9c897a}.cls-16{fill:#515151}.cls-17{fill:#efd9c5}.cls-18{fill:#57c5c0}.cls-19{fill:#4a5669}
        </style>
    </defs>
    <g id="Group_119" data-name="Group 119" transform="translate(-.154)">
        <g id="XMLID_55_" class="cls-1" transform="translate(.154 124.203)">
            <path id="Path_3914" d="M250.474 665.95c10.6.6 21.234-.337 31.813.786 5.205.543 10.561 1.5 15.223 3.745 1.723.824 4.7 2.135 5.093 4.007.412 2.022-1.816 2.734-1.985 4.569-.131 1.236 1.517 2.977 1.685 4.382.356 2.958-1.292 5.655-3.164 7.939-3.539 4.307-1.329 7.958-3.033 13.294-.637 1.985-.786 4.176-1.667 6.029-4.906 10.261-68.027 9.456-84.28 9.568-36.888.262-73.775-.169-110.644-.824-10.973-.187-21.964-.524-32.937-.749-6.423-.131-12.845-.243-19.268-.262-9.643-.037-20.728 2.06-29.847-2.753-15.916-8.389 4.569-16.59.562-25.9-1.76-4.1-9.063-4.606-12.3-5.617a7.705 7.705 0 0 1-4.125-2.373c-5.561-7.265 6.348-15 10.86-16.01 9.156-2.078 19.118-1.067 28.387-1.217 69.923-1.198 140.065-2.602 209.627 1.386z" class="cls-2" data-name="Path 3914" transform="translate(-.154 -663.312)"/>
        </g>
        <g id="XMLID_47_" transform="translate(168.966 20.784)">
            <g id="XMLID_52_" transform="translate(0 20.447)">
                <g id="XMLID_54_" transform="translate(0 10.673)">
                    <path id="Path_3915" d="M905.2 280.458l-3.5-1.2.449-1.517 2.584.281-.131-.824 2.884 1.386-.243 1.648z" class="cls-3" data-name="Path 3915" transform="translate(-901.7 -277.2)"/>
                </g>
                <g id="XMLID_53_" transform="translate(4.269)">
                    <path id="Path_3916" d="M950.9 220.2l-9.737 10.636-16.646.262-.019 3.3 19.7 4.045L957.98 226.6z" class="cls-4" data-name="Path 3916" transform="translate(-924.5 -220.2)"/>
                </g>
            </g>
            <g id="XMLID_51_" transform="translate(27.779 6.462)">
                <path id="Path_3917" d="M1062.4 153.243a4.927 4.927 0 0 0 .356-2.753 5.749 5.749 0 0 0-3.314-4.644c-2.827-1.086-5.992.88-8.932.169a13.851 13.851 0 0 0-.449 3.614 7.164 7.164 0 0 0 4.1 6.086 6.808 6.808 0 0 0 7.115-1.1 4.4 4.4 0 0 0 1.124-1.372z" class="cls-3" data-name="Path 3917" transform="translate(-1050.057 -145.512)"/>
            </g>
            <g id="XMLID_50_" transform="translate(22.938)">
                <path id="Path_3918" d="M1030.1 119l9.344.431.618 7.3 2.94-1.61.562-11.7L1030.66 111l-6.142 2.359-.318 3.333 4.457 4.194z" class="cls-5" data-name="Path 3918" transform="translate(-1024.2 -111)"/>
            </g>
            <g id="XMLID_49_" transform="translate(18.874 18.144)">
                <path id="Path_3919" d="M1014.409 209.623l10.5-1.723a71.37 71.37 0 0 1 14.156 23.612c5.037 14.231-2.9 35.109-2.9 35.109s-28.911-4.063-33.667-4.7l7.453-29.529z" class="cls-4" data-name="Path 3919" transform="translate(-1002.5 -207.9)"/>
            </g>
            <g id="XMLID_48_" transform="translate(33.48 16.253)">
                <path id="Path_3920" d="M1083.983 197.8a10 10 0 0 0 1.161 2.378c-1.348.281-2.7.543-4.063.824-.187-.955-.393-1.91-.58-2.865 1.011-.075 2.022-.131 3.033-.206z" class="cls-3" data-name="Path 3920" transform="translate(-1080.5 -197.8)"/>
            </g>
        </g>
        <g id="XMLID_32_" transform="translate(102.063)">
            <g id="XMLID_46_" transform="translate(20.447 13.95)">
                <path id="Path_3921" d="M653.918 74.5a2.846 2.846 0 0 0-.318 1.479c.112-.505.206-.992.318-1.479z" class="cls-6" data-name="Path 3921" transform="translate(-653.6 -74.5)"/>
            </g>
            <g id="XMLID_45_" transform="translate(0 122.272)">
                <path id="Path_3922" d="M545.261 653l-.187.637-.674 2.116 3.558 3.445 2.771-1.442-1.442-2.79-.15-.15-.15.225z" class="cls-7" data-name="Path 3922" transform="translate(-544.4 -653)"/>
            </g>
            <g id="XMLID_44_" transform="translate(.655 66.117)">
                <path id="Path_3923" d="M567.336 353.531a18.655 18.655 0 0 0-5.786 1.929 16.27 16.27 0 0 0-2.266 1.648l-.15 23.855-11.235 28.2.206.112.468-1.479 3.408 3.3 20.6-31.776 1.086-3.876-3.728-22.344c-.88.112-1.739.262-2.603.431z" class="cls-8" data-name="Path 3923" transform="translate(-547.9 -353.1)"/>
            </g>
            <g id="XMLID_43_" transform="translate(.861 120.793)">
                <path id="Path_3924" d="M549 646.579l3.726 2.041.15-.225-3.408-3.3z" class="cls-8" data-name="Path 3924" transform="translate(-549 -645.1)"/>
            </g>
            <g id="XMLID_42_" transform="translate(26.42 65.592)">
                <path id="Path_3925" d="M687.354 366.553l-1.854 6.61.431 2.547 2.584 33.63h.019v-.487h4.138l5.262-35.951-.262-22c-.955-.094-5.318-.543-8.351-.6z" class="cls-8" data-name="Path 3925" transform="translate(-685.5 -350.3)"/>
            </g>
            <g id="XMLID_41_" transform="translate(22.694 65.547)">
                <path id="Path_3926" d="M673.146 350.064c-.412 0-.786-.019-1.124 0a53.063 53.063 0 0 0-6.423.543l3.726 22.339 1.854-6.61z" class="cls-8" data-name="Path 3926" transform="translate(-665.6 -350.056)"/>
            </g>
            <g id="XMLID_40_" transform="translate(29.454 124.126)">
                <path id="Path_3927" d="M701.7 663.387v1.741l4.438 2.209 2.209-2.209-2.209-2.228h-.3l-.075.487z" class="cls-7" data-name="Path 3927" transform="translate(-701.7 -662.9)"/>
            </g>
            <g id="XMLID_39_" transform="translate(29.454 124.126)">
                <path id="Path_3928" d="M701.7 663.387h4.063l.075-.487H701.7z" class="cls-7" data-name="Path 3928" transform="translate(-701.7 -662.9)"/>
            </g>
            <g id="XMLID_38_" transform="translate(20.185 12.982)">
                <path id="Path_3929" d="M658.173 79.418A2.051 2.051 0 0 1 659 78a8.135 8.135 0 0 1 1.517-.356c.936-.318 1.329-1.386 1.61-2.341.243-.824.487-1.648.749-2.453a11.344 11.344 0 0 0 .3-1.142c-1.423-.524-2.734-1.5-4.213-1.872-1.667-.412-4.681-1.03-6.086.356l-.094.094c-.112.487-.206.974-.318 1.479 0 1.386.375 3.2.318 3.932a3.242 3.242 0 0 1-.58-.262 4.348 4.348 0 0 0 2.153 1.461 18.321 18.321 0 0 0-.318 3.033c.056 0 .094.019.15.019 1.348-.169 2.7-.3 3.876-.487.036-.024.072-.024.109-.043z" class="cls-9" data-name="Path 3929" transform="translate(-652.2 -69.331)"/>
            </g>
            <g id="XMLID_37_" transform="translate(15.54 3.127)">
                <path id="Path_3930" d="M631.888 30.929c.131-.655.281-1.292.412-1.947a2.557 2.557 0 0 1 .318-1.479c.056-.3.131-.58.187-.88a3.808 3.808 0 0 1 .506-1.423 3.235 3.235 0 0 1 2.322-1.142 7.861 7.861 0 0 1 6.329 1.8 3.477 3.477 0 0 1 1.03 1.461 3.272 3.272 0 0 1 .037 1.592 8.328 8.328 0 0 0 .974.281 6.9 6.9 0 0 0 4.1-.955c1.4-.786 2.116-3.183 2.959-4.456a10.081 10.081 0 0 1 .749-1.011 16.888 16.888 0 0 0 1.816-2.022 2.374 2.374 0 0 0 .169-2.565 2.8 2.8 0 0 0-1.461-.918 10.767 10.767 0 0 0-5.711-.318c-1.8.393-3.427 1.086-5.187.337a6.019 6.019 0 0 0-4.662.075c-1.929.618-4.494.674-6.254 1.573a5.055 5.055 0 0 0-1.8 1.648 7.637 7.637 0 0 0-.318 8.108 10.042 10.042 0 0 0 1.142 1.554 10.244 10.244 0 0 0 2.528 2.4 1.718 1.718 0 0 1-.243-.674 2.732 2.732 0 0 1 .058-1.039z" class="cls-10" data-name="Path 3930" transform="translate(-627.393 -16.697)"/>
            </g>
            <g id="XMLID_36_" transform="translate(19.922 15.41)">
                <path id="Path_3931" d="M651.32 82.3c-.131.655-.281 1.292-.412 1.947a2.819 2.819 0 0 0-.094 1.049 1.718 1.718 0 0 0 .243.674 2.649 2.649 0 0 0 .58.262c.058-.732-.317-2.546-.317-3.932z" class="cls-10" data-name="Path 3931" transform="translate(-650.795 -82.3)"/>
            </g>
            <g id="XMLID_35_" transform="translate(20.747 10.428)">
                <path id="Path_3932" d="M665.573 59.027a3.477 3.477 0 0 0-1.03-1.461 7.928 7.928 0 0 0-6.329-1.8 3.235 3.235 0 0 0-2.322 1.142 4.033 4.033 0 0 0-.506 1.423c-.056.3-.131.58-.187.88a.226.226 0 0 1 .094-.094c1.4-1.386 4.438-.768 6.086-.356 1.479.374 2.809 1.348 4.213 1.872a3.122 3.122 0 0 0-.019-1.606z" class="cls-10" data-name="Path 3932" transform="translate(-655.2 -55.693)"/>
            </g>
            <g id="XMLID_34_" transform="translate(.524)">
                <path id="Path_3933" d="M551 4.943l.861-1.8-.3-.374-.468.337.281-1.7-.691-1.219L548.829 0 547.2 1.03l.019 1.854 1.124 1.91.225.749 2.64-.019z" class="cls-9" data-name="Path 3933" transform="translate(-547.2)"/>
            </g>
            <g id="XMLID_33_" transform="translate(.955 5.505)">
                <path id="Path_3934" d="M604.251 81.679c-.674-.992-3-1.648-4.045-2.247a34.763 34.763 0 0 1-6.554-4.737 23.937 23.937 0 0 1-6.179-9.493 41.7 41.7 0 0 1-1.517-5.636c-.15-.693-.262-1.386-.393-2.078l8.239-.206L582.9 45.99l-.037.6a3.121 3.121 0 0 1 .037-.6c-2.771 1.1-5.393.543-8.2.974-.037 0-.075.019-.112.019-1.18.187-2.528.318-3.876.487a18.3 18.3 0 0 0-4.269.936 4.172 4.172 0 0 0-1.086.618l-7.883-6.872-3.311-12.752h-1.086l-2.64.019h-.937l2.228 20.41 8.108 11.271c-.506 2.153-.918 4.307-1.1 5.543-.468 3.108-.9 6.217-1.255 9.344-.374 3.483-.637 6.984-.693 10.486 0 .393-.056 1.479-.094 2.79-.056 2.753.019 6.46 1.011 6.591a.918.918 0 0 0 .524-.169 18.626 18.626 0 0 0 2.359-1.723 17.152 17.152 0 0 1 2.266-1.648 18.656 18.656 0 0 1 5.786-1.929 57.974 57.974 0 0 1 2.621-.449 49.253 49.253 0 0 1 6.422-.543h1.117c3.033.056 7.4.506 8.351.6a1.528 1.528 0 0 0 .187.019 33.612 33.612 0 0 0 5.374-1.648 66.446 66.446 0 0 0 8.988-3.558c.922-.393 3.45-1.835 2.551-3.127z" class="cls-7" data-name="Path 3934" transform="translate(-549.5 -29.4)"/>
            </g>
        </g>
        <g id="XMLID_29_" transform="translate(18.925 22.02)">
            <g id="XMLID_30_">
                <g id="XMLID_31_">
                    <path id="Path_3935" d="M259.166 155.836c-.824 0-1.629.037-2.434.075a33.577 33.577 0 0 0-53.047-20.691 35.3 35.3 0 0 0-65.855 17.114 32.539 32.539 0 0 0 .187 3.6 34.776 34.776 0 0 0-2.415-.075 34.737 34.737 0 1 0 0 69.468h123.564a34.747 34.747 0 1 0 0-69.487z" class="cls-11" data-name="Path 3935" transform="translate(-100.4 -117.6)"/>
                </g>
            </g>
        </g>
        <g id="XMLID_28_" transform="translate(141.553 31.289)">
            <path id="Path_3936" d="M755.3 168l2.565-.9s1.985.169 2.415.693l.786 2.06-2.828 2.359-2.49-1.255z" class="cls-9" data-name="Path 3936" transform="translate(-755.3 -167.1)"/>
        </g>
        <g id="XMLID_25_" transform="translate(141.534 82.201)">
            <g id="XMLID_26_">
                <g id="XMLID_27_">
                    <path id="Path_3937" d="M780.459 466.432q.871 0 1.741.056a23.883 23.883 0 0 1 23.63-19.6 24.217 24.217 0 0 1 14.437 4.756A25.326 25.326 0 0 1 867.51 463.9a23.418 23.418 0 0 1-.131 2.584 26.91 26.91 0 0 1 1.741-.056 24.906 24.906 0 1 1 0 49.808h-88.661a24.906 24.906 0 1 1 0-49.808z" class="cls-12" data-name="Path 3937" transform="translate(-755.2 -439)"/>
                </g>
            </g>
        </g>
        <g id="XMLID_19_" transform="translate(73.938 53.066)">
            <g id="XMLID_20_">
                <g id="XMLID_23_" transform="translate(0 35.127)">
                    <g id="XMLID_24_">
                        <path id="Path_3938" d="M456.01 492.646H394.2V471h9.325v12.508H446.7V471h9.306z" class="cls-13" data-name="Path 3938" transform="translate(-394.2 -471)"/>
                    </g>
                </g>
                <g id="XMLID_21_" transform="translate(11.572)">
                    <g id="XMLID_22_">
                        <path id="Path_3939" d="M464.932 302.387V325.1h20.8v-22.713h8.932L475.343 283.4 456 302.387z" class="cls-14" data-name="Path 3939" transform="translate(-456 -283.4)"/>
                    </g>
                </g>
            </g>
        </g>
        <g id="Group_118" data-name="Group 118" transform="translate(15.996 49.052)">
            <g id="XMLID_5_" transform="translate(.773 5.024)">
                <g id="XMLID_9_">
                    <g id="XMLID_18_" transform="translate(18.217 12.864)">
                        <path id="Path_3940" d="M186.254 357.5a6.463 6.463 0 0 0 2.06 1.292 5.351 5.351 0 0 0 .3 1.592c-.824.075-1.629.169-2.359.243-.019-.58-.037-1.142-.075-1.723a8.829 8.829 0 0 1 .074-1.404z" class="cls-6" data-name="Path 3940" transform="translate(-186.174 -357.5)"/>
                    </g>
                    <g id="XMLID_17_" transform="translate(13.035 111.899)">
                        <path id="Path_3941" d="M162.039 887.205l.169.112 1.648 2.041-1.929 1.685-3.427-2.228.131-1.854.037-.562 3.314 1.03z" class="cls-15" data-name="Path 3941" transform="translate(-158.5 -886.4)"/>
                    </g>
                    <g id="XMLID_16_" transform="translate(13.016 71.921)">
                        <path id="Path_3942" d="M161.939 673.087L158.4 712.8l.187.056 3.314 1.03.056-.225 8.22-30.409-.056-10.355a281.06 281.06 0 0 1-8.182.19z" class="cls-16" data-name="Path 3942" transform="translate(-158.4 -672.9)"/>
                    </g>
                    <g id="XMLID_15_" transform="translate(26.105 72.951)">
                        <path id="Path_3943" d="M236.932 678.4l-2.078 40.239-3.352.094.019.412h-.021l-3.2-39.865c.412-.019 6.179-.374 8.632-.88z" class="cls-16" data-name="Path 3943" transform="translate(-228.3 -678.4)"/>
                    </g>
                    <g id="XMLID_14_" transform="translate(29.325 112.816)">
                        <path id="Path_3944" d="M248.833 891.3h.225l1.854 1.816-1.741 1.929-3.633-1.779-.037-1.46 3.3-.094z" class="cls-15" data-name="Path 3944" transform="translate(-245.5 -891.3)"/>
                    </g>
                    <g id="XMLID_13_" transform="translate(18.296)">
                        <path id="Path_3945" d="M196.693 294.436a24.962 24.962 0 0 0-.262-2.022 5.828 5.828 0 0 0-1.985-3.614 5.587 5.587 0 0 1-1.446 2.228l-.075.075a35.718 35.718 0 0 0-4.4 5.393 12.66 12.66 0 0 0-1.929 5.168 6.464 6.464 0 0 0 2.06 1.292 5.351 5.351 0 0 0 .3 1.592.674.674 0 0 0 .15.225c.487.449 2.078.094 2.7-.037a.943.943 0 0 0 .487-.206c.056-.037.075-.112.112-.206a4.9 4.9 0 0 0 .112-1.367 6.625 6.625 0 0 0 3.8-4.363 11.078 11.078 0 0 0 .376-4.158z" class="cls-17" data-name="Path 3945" transform="translate(-186.6 -288.8)"/>
                    </g>
                    <g id="XMLID_12_" transform="translate(0 15.559)">
                        <path id="Path_3946" d="M133.829 426.647c-3.3-4.288-3.127-11.553-3.876-16.646-.786-5.262-1.573-10.542-2.865-15.691-.131-.487-.243-.992-.393-1.479-.3-1.1-.637-2.191-.992-3.277a70.838 70.838 0 0 0-2.846-7.4c-1.18-2.621-2.621-6.947-4.756-8.932a1.986 1.986 0 0 0-.225-.187 8.032 8.032 0 0 0-4.925-1.142.538.538 0 0 1-.112.206 1.041 1.041 0 0 1-.487.206c-.618.131-2.21.487-2.7.038a.674.674 0 0 1-.15-.225c-.824.075-1.629.168-2.359.243a49.415 49.415 0 0 0 1.573 11.928c.019.094.056.187.075.281 1.461 4.775 2.64 9.643 3.951 14.455.112.431.225.843.337 1.273a14.116 14.116 0 0 1 .562 5.355 6.445 6.445 0 0 1-.3 1.292 6.286 6.286 0 0 1-1.629 2.659 4.584 4.584 0 0 1-1.386.918 3.3 3.3 0 0 1-.562.187c-.824-1.255-2.846-.056-3.352 1.367s-.6 3.221-1.891 3.97c-1.03.6-2.359.318-3.651.15a6.149 6.149 0 0 0-2.341 0 20.115 20.115 0 0 0-1.947.786 21.958 21.958 0 0 1-6.441 9.381c-.674.6-1.442 1.386-1.217 2.266a2.187 2.187 0 0 0 1.067 1.18c4.513 2.921 10.224 3.09 15.616 3.033h.056c2.734-.037 5.468-.094 8.183-.187l2.753-.112 1.255-.056a47.892 47.892 0 0 0 7.378-.843 21.464 21.464 0 0 0 8.3-3.408 1.216 1.216 0 0 0 .6-.805c.09-.297-.116-.559-.303-.784z" class="cls-18" data-name="Path 3946" transform="translate(-88.887 -371.895)"/>
                    </g>
                    <g id="XMLID_11_" transform="translate(56.439 30.634)">
                        <path id="Path_3947" d="M390.806 453.542l1.5-1.142.412.187-.225.506 1.517-.6 1.255.412.543 1.666-.637 1.7-1.723.356-1.985-.655-1.161-.112.318-2.341z" class="cls-17" data-name="Path 3947" transform="translate(-390.3 -452.4)"/>
                    </g>
                    <g id="XMLID_10_" transform="translate(28.352 16.684)">
                        <path id="Path_3948" d="M268.855 395.969l-.112-3.857-17.058-4.232-10.729-9.98-.655 10.673 9.081 6.029z" class="cls-14" data-name="Path 3948" transform="translate(-240.3 -377.9)"/>
                    </g>
                </g>
                <g id="XMLID_6_" transform="translate(11.499 15.991)">
                    <g id="XMLID_8_" transform="translate(40.445 23.368)">
                        <path id="Path_3949" d="M366.862 500.1l1.517-1.1.412.206-.243.506 1.535-.562 1.255.431.487 1.7-.674 1.685-1.741.3-1.966-.712-1.142-.15.375-2.322z" class="cls-17" data-name="Path 3949" transform="translate(-366.3 -499)"/>
                    </g>
                    <g id="XMLID_7_">
                        <path id="Path_3950" d="M191.307 401.65l-.112-3.857-17.077-4.232L157.1 374.2l-6.8 9.624 21.533 16.459z" class="cls-14" data-name="Path 3950" transform="translate(-150.3 -374.2)"/>
                    </g>
                </g>
            </g>
            <g id="XMLID_4_">
                <path id="Path_3951" d="M114.781 268.789a5.936 5.936 0 0 0-3.071-4.419 2.981 2.981 0 0 0-.412.243 4.492 4.492 0 0 0-.468-.693 5 5 0 0 0-3.913-1.947c-5.617-.173-9.887 3.127-11.517 8.595-1.386 4.644-.786 9.587-.524 14.418.393 7.265-1.161 15.654-5.468 21.59-1.76 2.434-3.67 4.85-4.4 7.752s.112 6.46 2.771 7.846c1.03.543 2.266.73 3.164 1.479a1.944 1.944 0 0 1 .15 2.94c.674 1.2 1.423 1.255 2.21.974.618-.206 1.255-.6 1.947-.786a6.148 6.148 0 0 1 2.341 0c1.311.169 2.621.431 3.651-.15 1.311-.749 1.4-2.547 1.891-3.97.506-1.423 2.528-2.64 3.352-1.367.187-.056.374-.112.562-.187a4.826 4.826 0 0 0 1.386-.918 6.477 6.477 0 0 0 1.629-2.659 8.049 8.049 0 0 0 .3-1.292 14.459 14.459 0 0 0-.562-5.355c-.112-.431-.225-.861-.337-1.273-1.311-4.812-2.509-9.681-3.951-14.455a1.558 1.558 0 0 1-.075-.281 49.415 49.415 0 0 1-1.573-11.928c-.019-.58-.037-1.142-.075-1.723a8.812 8.812 0 0 1 .056-1.4 12.66 12.66 0 0 1 1.929-5.168 37.91 37.91 0 0 1 4.4-5.393l.075-.075a5.587 5.587 0 0 0 1.442-2.228 5.741 5.741 0 0 1 1.985 3.614 18.675 18.675 0 0 1 .262 2.022 5.822 5.822 0 0 0 .843-3.806z" class="cls-16" data-name="Path 3951" transform="translate(-84.758 -261.967)"/>
            </g>
        </g>
        <g id="XMLID_1_" transform="translate(179.695 38.929)">
            <g id="XMLID_3_" transform="translate(0 24.155)">
                <path id="Path_3952" d="M962.857 339.671l-3.689.225-.168-1.573 2.509-.712-.431-.712 3.183.187.393 1.61z" class="cls-3" data-name="Path 3952" transform="translate(-959 -336.9)"/>
            </g>
            <g id="XMLID_2_" transform="translate(4.213)">
                <path id="Path_3953" d="M1002.153 213.012l-4.85 13.65-15.8 5.149.936 3.164 20.017-1.929 11.2-17.788-5.8-7.359z" class="cls-19" data-name="Path 3953" transform="translate(-981.5 -207.9)"/>
            </g>
        </g>
    </g>
</svg>
