<svg xmlns="http://www.w3.org/2000/svg" viewBox="0 0 15.714 11">
    <defs>
        <style>
            .cls-1{fill:#202020}
        </style>
    </defs>
    <g id="ic_supervisor_account_24px" transform="translate(-37 -284)">
        <path id="ic_supervisor_account_24px-2" d="M13.393 10.5a1.964 1.964 0 1 0-1.964-1.964 1.958 1.958 0 0 0 1.964 1.964zM7.5 9.714a2.357 2.357 0 1 0-2.357-2.357A2.347 2.347 0 0 0 7.5 9.714zm5.893 2.357c-1.438 0-4.321.723-4.321 2.161V16h8.643v-1.768c-.001-1.438-2.884-2.161-4.322-2.161zM7.5 11.286c-1.831 0-5.5.919-5.5 2.75V16h5.5v-1.768a3.1 3.1 0 0 1 1.862-2.726 9.651 9.651 0 0 0-1.862-.22z" class="cls-1" data-name="ic_supervisor_account_24px" transform="translate(35 279)"/>
    </g>
</svg>
